<?xml version="1.0" encoding="UTF-8"?>
<svg width="800px" height="800px" fill="none" viewBox="0 0 24 24" xmlns="http://www.w3.org/2000/svg">
<style>path {fill: black;} @media (prefers-color-scheme: dark){path {fill: white;}}</style>
<path d="m7.2929 14.293c-0.39053 0.3905-0.39053 1.0237 0 1.4142 0.39052 0.3905 1.0237 0.3905 1.4142 0l2.5-2.5c0.6667-0.6667 0.6667-1.7475 0-2.4142l-2.5-2.5c-0.39052-0.39052-1.0237-0.39052-1.4142 0-0.39053 0.39053-0.39053 1.0237 0 1.4142l2.2929 2.2929-2.2929 2.2929zm5.7071-0.2929c-0.5523 0-1 0.4477-1 1s0.4477 1 1 1h3c0.5523 0 1-0.4477 1-1s-0.4477-1-1-1h-3zm9-6.0658v0.06583 8.0658c1e-4 0.8865 1e-4 1.6503-0.0821 2.262-0.0882 0.6555-0.2869 1.2839-0.7966 1.7935-0.5096 0.5097-1.138 0.7084-1.7935 0.7966-0.6117 0.0822-1.3755 0.0822-2.262 0.0821h-10.132c-0.8865 1e-4 -1.6503 1e-4 -2.262-0.0821-0.65552-0.0882-1.2839-0.2869-1.7935-0.7966-0.50967-0.5096-0.70841-1.138-0.79654-1.7935-0.08224-0.6117-0.0822-1.3755-0.08215-2.262v-8.1316c-5e-5 -0.8865-9e-5 -1.6503 0.08215-2.262 0.08813-0.65551 0.28687-1.2839 0.79654-1.7935 0.50966-0.50966 1.138-0.7084 1.7935-0.79653 0.61166-0.08224 1.3755-0.0822 2.262-0.08215l10.066 1e-5c0.022 0 0.044-1e-5 0.0658-1e-5 0.8865-5e-5 1.6503-9e-5 2.262 0.08215 0.6555 0.08813 1.2839 0.28687 1.7935 0.79654 0.5097 0.50966 0.7084 1.138 0.7966 1.7935 0.0822 0.61166 0.0822 1.3755 0.0821 2.262z" clip-rule="evenodd" fill="#000" fill-rule="evenodd"/>
</svg>
